Coordinates
version=1
nRows=29
nColumns=22
inDegrees=yes

Units are S.I. units (second, meters, Newtons, ...)
If the header above contains a line with 'inDegrees', this indicates whether rotational values are in degrees (yes) or radians (no).

endheader
time	pelvis_tilt	pelvis_list	pelvis_rotation	pelvis_tx	pelvis_ty	pelvis_tz	hip_flexion_r	hip_adduction_r	hip_rotation_r	knee_angle_r	ankle_angle_r	subtalar_angle_r	hip_flexion_l	hip_adduction_l	hip_rotation_l	knee_angle_l	ankle_angle_l	subtalar_angle_l	lumbar_extension	lumbar_bending	lumbar_rotation
      0.01000000	     -1.10702534	     -3.98918624	     -9.06609996	     -1.32759752	      1.02385144	     -0.38929996	      3.48126176	      6.59409995	     -1.20916627	    -11.11158531	      7.83083597	     -4.96585291	      3.06827338	     -2.94282544	     -7.42937357	    -11.41393176	     11.05549795	     -3.03048333	     -8.82004498	      2.46651304	      2.36722884
      0.02000000	     -1.10856706	     -3.98755809	     -9.06185804	     -1.32759253	      1.02384477	     -0.38926352	      3.48214728	      6.59522293	     -1.20858126	    -11.10986198	      7.82886141	     -4.96746288	      3.07113400	     -2.94372537	     -7.43005082	    -11.41331847	     11.05716657	     -3.03135599	     -8.82864840	      2.47250940	      2.36661173
      0.03000000	     -1.09877746	     -3.99655872	     -9.05217709	     -1.32759366	      1.02384957	     -0.38922059	      3.47514088	      6.60689103	     -1.20958132	    -11.12053806	      7.81539722	     -4.98004943	      3.07114963	     -2.95653127	     -7.42674400	    -11.43387839	     11.07363338	     -3.03465639	     -8.85478418	      2.48973852	      2.35609258
      0.04000000	     -1.10187029	     -3.99288951	     -9.05137237	     -1.32757586	      1.02383881	     -0.38915591	      3.47641346	      6.60758634	     -1.21143843	    -11.11739888	      7.81539388	     -4.98136869	      3.07310179	     -2.95682388	     -7.42751770	    -11.43150432	     11.07559208	     -3.03465711	     -8.86323965	      2.49365184	      2.35619073
      0.05000000	     -1.10438228	     -3.98930752	     -9.05022172	     -1.32755739	      1.02382909	     -0.38908868	      3.47796443	      6.60834845	     -1.21334093	    -11.11670469	      7.81512520	     -4.98320290	      3.07500676	     -2.95734339	     -7.42797248	    -11.43051332	     11.07820204	     -3.03449610	     -8.87409335	      2.49860479	      2.35543357
      0.06000000	     -1.09358413	     -3.99450629	     -9.04275298	     -1.32755859	      1.02383444	     -0.38903004	      3.47476564	      6.61595990	     -1.22758612	    -11.13598889	      7.81104183	     -4.99864186	      3.07154911	     -2.96607727	     -7.42633891	    -11.44652940	     11.09573686	     -3.03243014	     -8.90759282	      2.51256817	      2.34307886
      0.07000000	     -1.09805679	     -3.99042258	     -9.04327348	     -1.32754016	      1.02382576	     -0.38894744	      3.47647733	      6.61741131	     -1.23040014	    -11.13175608	      7.81147600	     -5.00011699	      3.07438084	     -2.96719256	     -7.42678823	    -11.44369969	     11.09711939	     -3.03207755	     -8.91807397	      2.51490312	      2.34205511
      0.08000000	     -1.10230026	     -3.98678027	     -9.04218432	     -1.32752304	      1.02381815	     -0.38887181	      3.47876368	      6.61889400	     -1.23322101	    -11.12911869	      7.81154012	     -5.00201955	      3.07748712	     -2.96836128	     -7.42764912	    -11.44121182	     11.09886007	     -3.03150046	     -8.93027510	      2.51811524	      2.33977619
      0.09000000	     -1.08923494	     -3.99814496	     -9.01467163	     -1.32750465	      1.02383460	     -0.38883665	      3.46055284	      6.63129188	     -1.28038036	    -11.12585850	      7.80467451	     -5.04480805	      3.07522744	     -2.98355705	     -7.41910999	    -11.46108763	     11.12419331	     -3.01278264	     -8.96621315	      2.53891436	      2.30345186
      0.10000000	     -1.09470124	     -3.99429956	     -9.01296314	     -1.32748634	      1.02382877	     -0.38876334	      3.46417097	      6.63277707	     -1.27988733	    -11.12338791	      7.80440402	     -5.04593409	      3.07830608	     -2.98441442	     -7.41957386	    -11.45587232	     11.12449860	     -3.01192574	     -8.97703248	      2.53987873	      2.30093654
      0.11000000	     -1.10047824	     -3.99089962	     -9.00899706	     -1.32746917	      1.02382570	     -0.38869384	      3.46798819	      6.63487421	     -1.27909944	    -11.12127522	      7.80403085	     -5.04734783	      3.08178943	     -2.98565197	     -7.42040587	    -11.44992109	     11.12484927	     -3.01059488	     -8.98790115	      2.54061165	      2.29586024
      0.12000000	     -1.10792804	     -3.98962452	     -8.99498802	     -1.32744246	      1.02381874	     -0.38863536	      3.47252912	      6.63984801	     -1.27708334	    -11.11984689	      7.80086321	     -5.05531514	      3.08575073	     -2.98901354	     -7.41700822	    -11.43946053	     11.12372044	     -3.00154404	     -8.99389782	      2.54527913	      2.26028518
      0.13000000	     -1.11508431	     -3.98662957	     -8.99269626	     -1.32742953	      1.02381206	     -0.38856301	      3.47642690	      6.64242673	     -1.27931147	    -11.11374783	      7.80119342	     -5.05617292	      3.09039460	     -2.99100189	     -7.41649491	    -11.43461587	     11.12383073	     -3.00032528	     -9.00463693	      2.54370533	      2.25824192
      0.14000000	     -1.12325144	     -3.98412721	     -8.98736187	     -1.32741982	      1.02380357	     -0.38848690	      3.48062054	      6.64629240	     -1.28157784	    -11.10684707	      7.80132322	     -5.05703730	      3.09548371	     -2.99409902	     -7.41666565	    -11.42745009	     11.12374288	     -2.99885887	     -9.01439172	      2.54078604	      2.25410452
      0.15000000	     -1.15691259	     -3.98686178	     -8.94130417	     -1.32738425	      1.02376066	     -0.38846589	      3.49656186	      6.65728206	     -1.32595677	    -11.07183653	      7.77899850	     -5.07695532	      3.13450259	     -3.00435650	     -7.35716658	    -11.42529249	     11.10915264	     -2.96129093	     -8.98738063	      2.55431693	      2.18493323
      0.16000000	     -1.16601416	     -3.98445868	     -8.93974660	     -1.32738305	      1.02375040	     -0.38838047	      3.50198401	      6.66116144	     -1.32901705	    -11.06515456	      7.77980930	     -5.07725690	      3.13919723	     -3.00825285	     -7.35952657	    -11.41667239	     11.11024299	     -2.96061115	     -8.99893202	      2.54934802	      2.18303683
      0.17000000	     -1.18663953	     -3.98329823	     -8.93253371	     -1.32733452	      1.02372534	     -0.38828665	      3.50700891	      6.66829905	     -1.34617326	    -11.03970143	      7.77841303	     -5.07877358	      3.14497149	     -3.01512265	     -7.36726929	    -11.38950065	     11.10958790	     -2.95480833	     -8.98594659	      2.54633624	      2.16784531
      0.18000000	     -1.19743168	     -3.98109252	     -8.93419000	     -1.32734911	      1.02371372	     -0.38819480	      3.51301576	      6.67191340	     -1.35012573	    -11.02926807	      7.77839817	     -5.07876335	      3.15163219	     -3.01998987	     -7.36725322	    -11.38136005	     11.10918346	     -2.95392848	     -9.00026295	      2.54062288	      2.16547717
      0.19000000	     -1.23218483	     -3.98235409	     -8.91526968	     -1.32732184	      1.02367790	     -0.38811259	      3.52365346	      6.68340966	     -1.37840920	    -10.98187963	      7.74575806	     -5.07766610	      3.17815379	     -3.03097721	     -7.33973205	    -11.36089998	     11.08571836	     -2.93392441	     -8.97624334	      2.54292010	      2.13506328
      0.20000000	     -1.24828592	     -3.98068342	     -8.91588716	     -1.32731897	      1.02365990	     -0.38799588	      3.52468831	      6.68957751	     -1.39362336	    -10.95358050	      7.74672086	     -5.07697115	      3.18571582	     -3.03873183	     -7.34412583	    -11.34572599	     11.08581993	     -2.93164379	     -8.97959585	      2.53219846	      2.13473764
      0.21000000	     -1.26524450	     -3.97963297	     -8.91755649	     -1.32731972	      1.02364409	     -0.38788180	      3.52390776	      6.69634281	     -1.40712620	    -10.91927887	      7.74081023	     -5.07522743	      3.19351714	     -3.04681598	     -7.34704838	    -11.32902123	     11.08077797	     -2.92911741	     -8.98353136	      2.52358311	      2.13111619
      0.22000000	     -1.27658664	     -3.97799786	     -8.92323493	     -1.32735682	      1.02363350	     -0.38778032	      3.52995669	      6.70080533	     -1.41151305	    -10.90584994	      7.74015297	     -5.07477604	      3.20086576	     -3.05269446	     -7.34759830	    -11.31972523	     11.08018134	     -2.92873186	     -9.00215408	      2.51566661	      2.12859669
      0.23000000	     -1.29297104	     -3.97790099	     -8.92591233	     -1.32733332	      1.02362651	     -0.38766118	      3.52437004	      6.70935298	     -1.42267740	    -10.86570893	      7.72228805	     -5.07131468	      3.20370595	     -3.06193353	     -7.35575893	    -11.29717659	     11.06859318	     -2.92552502	     -9.00215329	      2.50558443	      2.12334739
      0.24000000	     -1.30252218	     -3.97634628	     -8.93199650	     -1.32735904	      1.02362185	     -0.38756901	      3.53099584	      6.71410847	     -1.42461027	    -10.85746334	      7.72077022	     -5.07084699	      3.20942629	     -3.06697224	     -7.35634509	    -11.28916040	     11.06791543	     -2.92507011	     -9.02155651	      2.49769922	      2.12042565
      0.25000000	     -1.31118687	     -3.97519141	     -8.93869970	     -1.32737286	      1.02362192	     -0.38747334	      3.53723926	      6.71950105	     -1.42571929	    -10.85173662	      7.71866867	     -5.07030233	      3.21337395	     -3.07266439	     -7.35786464	    -11.28110089	     11.06693404	     -2.92459486	     -9.03911007	      2.48751581	      2.11672101
      0.26000000	     -1.31123848	     -3.96922005	     -8.96159948	     -1.32738846	      1.02364175	     -0.38736653	      3.54521684	      6.71903304	     -1.40325649	    -10.86630062	      7.69064178	     -5.06538165	      3.19816819	     -3.07066527	     -7.38196257	    -11.25603425	     11.04999215	     -2.91916895	     -9.06744634	      2.47182782	      2.10987117
      0.27000000	     -1.31923695	     -3.96817585	     -8.97144670	     -1.32739242	      1.02364242	     -0.38726368	      3.54958497	      6.72475876	     -1.40452683	    -10.85947491	      7.69098585	     -5.06489068	      3.20139802	     -3.07654311	     -7.38276276	    -11.25100727	     11.04920934	     -2.91881130	     -9.08410193	      2.45864076	      2.10811444
      0.28000000	     -1.29624801	     -3.95210088	     -9.02109389	     -1.32738608	      1.02369677	     -0.38710271	      3.52084668	      6.71254942	     -1.34077501	    -10.85290394	      7.68115960	     -5.05348005	      3.15600737	     -3.06246972	     -7.44720722	    -11.22419908	     11.01977633	     -2.90913514	     -9.13488296	      2.41619197	      2.14753923
      0.29000000	     -1.30498372	     -3.95194335	     -9.03280002	     -1.32739876	      1.02369321	     -0.38700714	      3.52556408	      6.71784334	     -1.34301735	    -10.84506705	      7.68200693	     -5.05307803	      3.16083213	     -3.06873619	     -7.44641962	    -11.21947395	     11.02022641	     -2.90892935	     -9.15398794	      2.40571033	      2.14265432
